<?xml version="1.0" standalone="no"?><!DOCTYPE svg PUBLIC "-//W3C//DTD SVG 1.1//EN" "http://www.w3.org/Graphics/SVG/1.1/DTD/svg11.dtd"><svg t="1661480428378" class="icon" viewBox="0 0 1144 1024" version="1.1" xmlns="http://www.w3.org/2000/svg" p-id="5544" xmlns:xlink="http://www.w3.org/1999/xlink" width="22.34375" height="20"><path d="M239.23671 1023.99858a67.074143 67.074143 0 0 1-64.838338-81.606873l20.122243-87.196386h-82.724776A111.790238 111.790238 0 0 1 0.005601 742.28718V111.790238A111.790238 111.790238 0 0 1 111.795839 0h921.151561a111.790238 111.790238 0 0 1 111.790238 111.790238v630.496942a111.790238 111.790238 0 0 1-111.790238 111.790238H537.716646a22.358048 22.358048 0 0 0-12.296927 3.353708L275.009586 1013.937459a67.074143 67.074143 0 0 1-35.772876 10.061121zM111.795839 89.43219a22.358048 22.358048 0 0 0-22.358048 22.358048v630.496942a22.358048 22.358048 0 0 0 22.358048 22.358048h96.139604a78.253167 78.253167 0 0 1 76.017362 96.139605l-11.179024 49.187704 205.694038-128.558773a111.790238 111.790238 0 0 1 59.248827-16.768536h495.230754a22.358048 22.358048 0 0 0 22.358048-22.358048V111.790238a22.358048 22.358048 0 0 0-22.358048-22.358048z" fill="#bfbfbf" p-id="5545"></path><path d="M831.724972 509.763485a89.43219 89.43219 0 1 1 89.43219-89.43219 89.43219 89.43219 0 0 1-89.43219 89.43219z m0-89.43219z m0 0z m0 0z m0 0z m0 0z m0 0zM573.489522 509.763485a89.43219 89.43219 0 1 1 89.43219-89.43219 89.43219 89.43219 0 0 1-89.43219 89.43219z m0-89.43219z m0 0z m0 0z m0 0z m0 0z m0 0z m0 0z m0 0z m0 0zM315.254072 509.763485a89.43219 89.43219 0 1 1 89.43219-89.43219 89.43219 89.43219 0 0 1-89.43219 89.43219z m0-89.43219z" fill="#bfbfbf" p-id="5546"></path></svg>