<?xml version="1.0" standalone="no"?><!DOCTYPE svg PUBLIC "-//W3C//DTD SVG 1.1//EN" "http://www.w3.org/Graphics/SVG/1.1/DTD/svg11.dtd"><svg t="1660972581888" class="icon" viewBox="0 0 1024 1024" version="1.1" xmlns="http://www.w3.org/2000/svg" p-id="3887" xmlns:xlink="http://www.w3.org/1999/xlink" width="20" height="20"><defs><style type="text/css">@font-face { font-family: feedback-iconfont; src: url("//at.alicdn.com/t/font_1031158_u69w8yhxdu.woff2?t=1630033759944") format("woff2"), url("//at.alicdn.com/t/font_1031158_u69w8yhxdu.woff?t=1630033759944") format("woff"), url("//at.alicdn.com/t/font_1031158_u69w8yhxdu.ttf?t=1630033759944") format("truetype"); }
</style></defs><path d="M866 384h-34v-64c0-43-8.5-84.9-25.3-124.3-16.1-38.1-39.3-72.3-68.7-101.7-29.4-29.4-63.6-52.5-101.7-68.7C596.9 8.5 555 0 512 0s-84.9 8.5-124.3 25.3C349.6 41.4 315.4 64.6 286 94s-52.5 63.6-68.7 101.7C200.5 235.1 192 277 192 320v64h-34c-51.8 0-94 42.2-94 94v452c0 51.8 42.2 94 94 94h708c51.8 0 94-42.2 94-94V478c0-51.8-42.2-94-94-94z m-614-64c0-69.1 27.1-134.3 76.4-183.6S442.9 60 512 60s134.3 27.1 183.6 76.4C744.9 185.7 772 250.9 772 320v64H252v-64z m648 610c0 18.7-15.3 34-34 34H158c-18.7 0-34-15.3-34-34V478c0-18.7 15.3-34 34-34h708c18.7 0 34 15.3 34 34v452z" fill="#bfbfbf" p-id="3888"></path><path d="M512 608c-16.5 0-30 13.5-30 30v132c0 16.5 13.5 30 30 30s30-13.5 30-30V638c0-16.5-13.5-30-30-30z" fill="#bfbfbf" p-id="3889"></path></svg>