<?xml version="1.0" standalone="no"?><!DOCTYPE svg PUBLIC "-//W3C//DTD SVG 1.1//EN" "http://www.w3.org/Graphics/SVG/1.1/DTD/svg11.dtd"><svg t="1666943859150" class="icon" viewBox="0 0 1024 1024" version="1.1" xmlns="http://www.w3.org/2000/svg" p-id="8123" width="32" height="32" xmlns:xlink="http://www.w3.org/1999/xlink"><path d="M512.001023 881.247762c-203.605188 0-369.248785-165.643598-369.248785-369.248785 0-203.602118 165.643598-369.245715 369.248785-369.245716 203.602118 0 369.245715 165.643598 369.245716 369.245716 0.001023 203.604164-165.643598 369.248785-369.245716 369.248785z m0-682.736593c-172.85893 0-313.489854 140.627854-313.489854 313.486784 0 172.860976 140.630924 313.489854 313.489854 313.489854s313.486784-140.627854 313.486784-313.489854c0-172.857906-140.627854-313.486784-313.486784-313.486784z" p-id="8124" fill="#77cb1b"></path><path d="M673.77857 688.595021c-10.645454 0-20.812001-6.131651-25.450648-16.47216L512.899486 370.270045 377.471051 672.123884c-6.305613 14.048971-22.796192 20.348444-36.85028 14.021342-14.048971-6.300496-20.326954-22.799262-14.024411-36.848233l160.867827-358.549096a27.871791 27.871791 0 0 1 25.434276-16.46602c10.983145 0 20.941961 6.446829 25.434275 16.46602l160.862711 358.549096c6.305613 14.048971 0.027629 30.547737-14.021341 36.848233a27.734668 27.734668 0 0 1-11.395538 2.449795z" p-id="8125" fill="#77cb1b"></path><path d="M622.413716 574.139246H403.382187c-15.396665 0-27.879977-12.483312-27.879977-27.879978s12.483312-27.879977 27.879977-27.879977h219.031529c15.398712 0 27.879977 12.483312 27.879977 27.879977s-12.480242 27.879977-27.879977 27.879978z" p-id="8126" fill="#77cb1b"></path></svg>