<?xml version="1.0" standalone="no"?><!DOCTYPE svg PUBLIC "-//W3C//DTD SVG 1.1//EN" "http://www.w3.org/Graphics/SVG/1.1/DTD/svg11.dtd"><svg t="1660999994754" class="icon" viewBox="0 0 1024 1024" version="1.1" xmlns="http://www.w3.org/2000/svg" p-id="3634" xmlns:xlink="http://www.w3.org/1999/xlink" width="20" height="20"><defs><style type="text/css">@font-face { font-family: feedback-iconfont; src: url("//at.alicdn.com/t/font_1031158_u69w8yhxdu.woff2?t=1630033759944") format("woff2"), url("//at.alicdn.com/t/font_1031158_u69w8yhxdu.woff?t=1630033759944") format("woff"), url("//at.alicdn.com/t/font_1031158_u69w8yhxdu.ttf?t=1630033759944") format("truetype"); }
</style></defs><path d="M527.519539 47.398502c-247.370854 0-447.905178 200.525005-447.905178 447.888794 0 247.362765 200.534323 447.88777 447.905178 447.88777 247.372902 0 447.907226-200.523981 447.907226-447.88777C975.426765 247.923507 774.890496 47.398502 527.519539 47.398502zM527.519539 890.304c-218.167603 0-395.030835-176.855962-395.030835-395.017728 0-218.16279 176.862208-395.017728 395.030835-395.017728 218.170675 0 395.033907 176.85289 395.033907 395.017728C922.552422 713.447014 745.690214 890.304 527.519539 890.304zM454.766694 478.424269c16.131072-6.385459 28.397875-15.397683 36.481331-26.802483 8.401715-11.859046 12.661862-25.982771 12.661862-41.983181 0-25.065882-9.295053-46.633062-27.623219-64.104038-18.322022-17.458586-42.836378-26.309222-72.859341-26.309222-29.869466 0-54.146355 8.655155-72.155238 25.725952-18.020147 17.076941-27.157606 38.44864-27.157606 63.513498 0 16.627712 4.300083 31.10953 12.779622 43.04128 8.129434 11.44361 20.600013 20.474266 37.080986 26.857677-19.934822 5.624115-35.587994 15.865344-46.55104 30.459699-11.363226 15.121408-17.124659 34.136474-17.124659 56.517222 0 30.039142 10.55273 55.466291 31.366656 75.569152 20.800614 20.103885 48.545587 30.296986 82.463437 30.296986 33.91273 0 61.655654-10.154291 82.460365-30.176256 20.813926-20.032205 31.368704-45.103206 31.368704-74.518221 0-21.28681-5.601792-39.86391-16.648806-55.217562C490.606387 496.412979 474.955264 485.363302 454.766694 478.424269zM348.668006 407.059968c0-14.090957 5.282509-26.36032 15.699149-36.46761 10.422784-10.116403 23.723213-15.244186 39.528858-15.244186 15.647027 0 28.905472 5.246464 39.407104 15.593165 10.497536 10.342605 15.819981 23.286374 15.819981 38.460928 0 14.55657-5.164851 27.024486-15.351296 37.053952-10.190541 10.037658-23.45001 15.125504-39.407104 15.125504-16.428851 0-29.964698-5.126758-40.228864-15.242138C353.873818 436.231373 348.668006 423.014298 348.668006 407.059968zM453.95415 615.860429c-12.904448 12.755558-29.510246 19.221811-49.355059 19.221811-12.77655 0-24.869376-3.080192-35.940966-9.156506-11.054182-6.063104-19.500954-14.741709-25.102746-25.794458-5.618176-11.080397-8.466125-22.705152-8.466125-34.556006 0-19.377357 6.505472-35.745075 19.33824-48.651059 12.826624-12.908032 29.233971-19.450982 48.765645-19.450982 19.99319 0 36.875366 6.622822 50.176819 19.688448 13.295309 13.065523 20.034048 29.826355 20.034048 49.818624C473.403904 586.66455 466.860646 603.108045 453.95415 615.860429zM702.282854 478.424269c16.13312-6.385459 28.399923-15.397683 36.481331-26.802483 8.400691-11.859046 12.660838-25.982771 12.660838-41.983181 0-25.065882-9.293005-46.633062-27.622195-64.104038-18.322022-17.458586-42.836378-26.309222-72.857293-26.309222-29.873562 0-54.149427 8.655155-72.156262 25.725952-18.020147 17.076941-27.15863 38.44864-27.15863 63.513498 0 16.627712 4.301107 31.10953 12.780544 43.04128 8.12841 11.44361 20.600013 20.474266 37.08201 26.857677-19.935846 5.624115-35.589018 15.865344-46.554112 30.459699-11.362202 15.121408-17.123635 34.136474-17.123635 56.517222 0 30.039142 10.553754 55.466291 31.366656 75.569152 20.802662 20.103885 48.546611 30.296986 82.463437 30.296986 33.911706 0 61.656678-10.154291 82.462413-30.176256 20.812902-20.032205 31.366656-45.103206 31.366656-74.518221 0-21.28681-5.601792-39.86391-16.646758-55.217562C738.124595 496.412979 722.47255 485.363302 702.282854 478.424269zM596.184166 407.059968c0-14.090957 5.280461-26.36032 15.699149-36.46761 10.42176-10.116403 23.723213-15.244186 39.528858-15.244186 15.646003 0 28.905472 5.246464 39.405056 15.593165 10.499584 10.342605 15.819981 23.286374 15.819981 38.460928 0 14.55657-5.162803 27.024486-15.350272 37.053952-10.189517 10.037658-23.448986 15.125504-39.407104 15.125504-16.428851 0-29.963674-5.126758-40.22784-15.242138C601.388954 436.231373 596.184166 423.014298 596.184166 407.059968zM701.472358 615.860429c-12.905472 12.755558-29.512294 19.221811-49.358131 19.221811-12.774502 0-24.868352-3.080192-35.940966-9.156506-11.052134-6.063104-19.498906-14.741709-25.100698-25.794458-5.620224-11.080397-8.466125-22.705152-8.466125-34.556006 0-19.377357 6.505472-35.745075 19.339264-48.651059 12.824576-12.908032 29.231923-19.450982 48.763597-19.450982 19.995238 0 36.87639 6.622822 50.177843 19.688448 13.293261 13.065523 20.033024 29.826355 20.033024 49.818624C720.920064 586.66455 714.376806 603.108045 701.472358 615.860429z" p-id="3635" fill="#f10180"></path></svg>