<?xml version="1.0" standalone="no"?><!DOCTYPE svg PUBLIC "-//W3C//DTD SVG 1.1//EN" "http://www.w3.org/Graphics/SVG/1.1/DTD/svg11.dtd"><svg t="1661483967462" class="icon" viewBox="0 0 1024 1024" version="1.1" xmlns="http://www.w3.org/2000/svg" p-id="8632" xmlns:xlink="http://www.w3.org/1999/xlink" width="200" height="200"><path d="M521.728 88.576c-244.736 0-443.733333 198.997333-443.733333 443.733333s198.997333 443.733333 443.733333 443.733334 443.733333-198.997333 443.733333-443.733334-199.168-443.733333-443.733333-443.733333z m0 819.2c-207.018667 0-375.466667-168.448-375.466667-375.466667s168.448-375.466667 375.466667-375.466666 375.466667 168.448 375.466667 375.466666-168.448 375.466667-375.466667 375.466667z" p-id="8633" fill="#FA2A83"></path><path d="M682.325333 403.285333L486.912 598.698667l-116.565333-116.565334c-13.312-13.312-34.986667-13.312-48.298667 0-13.312 13.312-13.312 34.986667 0 48.298667l164.864 164.864 243.712-243.712c13.312-13.312 13.312-34.986667 0-48.298667s-34.986667-13.312-48.298667 0z" p-id="8634" fill="#FA2A83"></path></svg>