<?xml version="1.0" standalone="no"?><!DOCTYPE svg PUBLIC "-//W3C//DTD SVG 1.1//EN" "http://www.w3.org/Graphics/SVG/1.1/DTD/svg11.dtd"><svg t="1662599808544" class="icon" viewBox="0 0 1024 1024" version="1.1" xmlns="http://www.w3.org/2000/svg" p-id="4233" xmlns:xlink="http://www.w3.org/1999/xlink" width="128" height="128"><path d="M384 256h-42.666667v-42.666667a170.666667 170.666667 0 1 1 341.333334 0v42.666667h-42.666667v-42.666667c0-70.58-57.42-128-128-128s-128 57.42-128 128z m550 665.386667l-77.333333-618.666667a53.42 53.42 0 0 0-52.913334-46.72H682.666667v133.74a42.666667 42.666667 0 1 1-42.666667 0V256H384v133.74a42.666667 42.666667 0 1 1-42.666667 0V256H220.246667A53.42 53.42 0 0 0 167.333333 302.72l-77.333333 618.666667a53.333333 53.333333 0 0 0 52.913333 59.946666h738.173334a53.333333 53.333333 0 0 0 52.92-59.946666z" fill="#d4237a" p-id="4234"></path></svg>