<?xml version="1.0" standalone="no"?><!DOCTYPE svg PUBLIC "-//W3C//DTD SVG 1.1//EN" "http://www.w3.org/Graphics/SVG/1.1/DTD/svg11.dtd"><svg t="1661751162016" class="icon" viewBox="0 0 1024 1024" version="1.1" xmlns="http://www.w3.org/2000/svg" p-id="6645" xmlns:xlink="http://www.w3.org/1999/xlink" width="128" height="128"><path d="M512.045025 962.874851c-248.349251 0-449.65507-201.846124-449.65507-450.919876 0-248.984724 201.305819-450.830849 449.65507-450.830849 248.261247 0 449.565019 201.846124 449.565019 450.830849C961.610044 761.028727 760.306272 962.874851 512.045025 962.874851L512.045025 962.874851zM572.751642 289.933345l-69.211315 0c-9.766434 27.322275-27.685549 51.116191-53.835116 71.65497-26.054399 20.446681-50.302663 34.288944-72.557526 41.61684l0 77.535911c42.346457-14.023388 79.07701-35.555797 110.197798-64.778352l0 322.720076 85.406159 0L572.751642 289.933345 572.751642 289.933345z" p-id="6646" fill="#418CD6"></path></svg>