<?xml version="1.0" standalone="no"?><!DOCTYPE svg PUBLIC "-//W3C//DTD SVG 1.1//EN" "http://www.w3.org/Graphics/SVG/1.1/DTD/svg11.dtd"><svg t="1661748193334" class="icon" viewBox="0 0 1024 1024" version="1.1" xmlns="http://www.w3.org/2000/svg" p-id="6276" xmlns:xlink="http://www.w3.org/1999/xlink" width="128" height="128"><path d="M511.950881 962.833919c-248.254084 0-449.561949-201.849194-449.561949-450.833919S263.696798 61.166081 511.950881 61.166081c248.353344 0 449.659163 201.848171 449.659163 450.832895S760.305249 962.833919 511.950881 962.833919L511.950881 962.833919zM662.141532 665.532769 492.320798 665.532769c4.433986-7.780197 10.224876-15.652492 17.46579-23.793916 7.143701-8.142447 24.246217-24.608467 51.2922-49.399083 27.053146-24.789593 45.695738-43.788296 56.095599-56.997132 15.566534-19.905352 26.962072-38.904055 34.202986-57.08923 7.147794-18.186198 10.765181-37.366026 10.765181-57.45148 0-35.374672-12.573363-64.87045-37.636179-88.665389-25.15389-23.793916-59.715033-35.646871-103.595426-35.646871-40.077787 0-73.464175 10.222829-100.246145 30.761608-26.689872 20.537755-42.61047 54.374398-47.676859 101.602026l85.408205 8.504698c1.629103-25.060769 7.688099-42.974767 18.0941-53.740972 10.492982-10.766205 24.608467-16.194844 42.340317-16.194844 17.915022 0 31.940456 5.15644 42.070164 15.380292 10.226922 10.313903 15.293311 24.970718 15.293311 44.061518 0 17.281595-5.884011 34.742269-17.640776 52.475142-8.69094 12.846586-32.212656 37.184901-70.665433 73.194022-47.772027 44.512796-79.794347 80.250742-95.994308 107.120716-16.192797 26.962072-25.877367 55.461149-29.127388 85.498256l299.375391 0L662.141532 665.532769 662.141532 665.532769z" p-id="6277" fill="#cdcdcd"></path></svg>