<?xml version="1.0" standalone="no"?><!DOCTYPE svg PUBLIC "-//W3C//DTD SVG 1.1//EN" "http://www.w3.org/Graphics/SVG/1.1/DTD/svg11.dtd"><svg t="1661747960151" class="icon" viewBox="0 0 1024 1024" version="1.1" xmlns="http://www.w3.org/2000/svg" p-id="13671" xmlns:xlink="http://www.w3.org/1999/xlink" width="128" height="128"><path d="M513.1 64.2c-247.4 0-448 200.6-448 448s200.6 448 448 448 448-200.6 448-448-200.6-448-448-448z m99.2 656.1c-26.9 23-61.3 34.5-103.3 34.5-41.2 0-75-10.6-101.4-31.9-30.3-24.3-45.7-59.1-46.1-104.6H446c0.4 19.9 6.9 35.1 19.5 45.5 11.3 10 25.8 15 43.5 15 18.6 0 33.7-5.6 45.2-16.9 11.5-11.3 17.2-27.1 17.2-47.5 0-19.5-5.7-35-17.2-46.5s-27.4-17.2-47.8-17.2H494v-73.4h12.2c38.6 0 58-19.3 58-57.9 0-18.6-5.4-33.1-16.2-43.5-10.8-10.4-24.2-15.6-40.2-15.6-16 0-29.3 5-39.8 14.9-10.6 10-16.3 23.6-17.2 41h-84.2c0.9-40.3 14.7-72.4 41.6-96.2 26.9-23.8 60.2-35.8 100.1-35.8 41.2 0 75 12.4 101.4 37.1 26.4 24.7 39.7 56.5 39.7 95.5 0 44.2-17.8 75.8-53.3 94.9C636 532.9 655.9 568 655.9 617c0 44.1-14.6 78.6-43.6 103.3z" p-id="13672" fill="#418CD6"></path></svg>