<?xml version="1.0" standalone="no"?><!DOCTYPE svg PUBLIC "-//W3C//DTD SVG 1.1//EN" "http://www.w3.org/Graphics/SVG/1.1/DTD/svg11.dtd"><svg t="1661000085103" class="icon" viewBox="0 0 1024 1024" version="1.1" xmlns="http://www.w3.org/2000/svg" p-id="2513" xmlns:xlink="http://www.w3.org/1999/xlink" width="20" height="20"><defs><style type="text/css">@font-face { font-family: feedback-iconfont; src: url("//at.alicdn.com/t/font_1031158_u69w8yhxdu.woff2?t=1630033759944") format("woff2"), url("//at.alicdn.com/t/font_1031158_u69w8yhxdu.woff?t=1630033759944") format("woff"), url("//at.alicdn.com/t/font_1031158_u69w8yhxdu.ttf?t=1630033759944") format("truetype"); }
</style></defs><path d="M716.547141 409.428903 451.708334 436.893418 451.708334 312.636417c0-12.484336-10.152221-22.61916-22.63758-22.61916-12.502755 0-22.636556 10.134825-22.636556 22.61916l0 128.939651-126.499066 13.126972c-12.429077 1.284249-21.461801 12.410658-20.194948 24.858154 1.230014 11.640108 11.051707 20.305465 22.490224 20.305465 0.788969 0 1.578961-0.073678 2.367931-0.146333l121.815393-12.595876 0 112.214734c0 65.230654 17.514909 105.639992 104.668875 105.639992l121.705899 0c25.207102 0 84.23345 0 84.23345-69.179592 0-12.483312-10.134825-22.636556-22.63758-22.636556s-22.61916 10.153244-22.61916 22.636556c0 18.984377-1.542122 23.905456-38.977733 23.905456L511.083629 659.70504c-53.902654 0-59.375296-11.42112-59.375296-60.366879L451.708334 482.425428l269.499967-27.943422c12.4301-1.302669 21.463848-12.447497 20.177552-24.858154C740.10058 417.175331 728.791 408.216285 716.547141 409.428903zM511.102049 908.697951c-218.937384 0-397.062248-178.12384-397.062248-397.043828 0-218.955804 178.12384-397.081691 397.062248-397.081691 218.956827 0 397.080667 178.124863 397.080667 397.081691C908.182716 730.574111 730.058876 908.697951 511.102049 908.697951M511.102049 69.316715c-243.906056 0-442.337407 198.448748-442.337407 442.337407s198.431352 442.320011 442.337407 442.320011c243.925499 0 442.355827-198.449771 442.355827-442.320011C953.457876 267.765463 755.027547 69.316715 511.102049 69.316715" p-id="2514" fill="#f10180"></path></svg>