<?xml version="1.0" standalone="no"?><!DOCTYPE svg PUBLIC "-//W3C//DTD SVG 1.1//EN" "http://www.w3.org/Graphics/SVG/1.1/DTD/svg11.dtd"><svg t="1660982213002" class="icon" viewBox="0 0 1024 1024" version="1.1" xmlns="http://www.w3.org/2000/svg" p-id="2421" width="21" height="21" xmlns:xlink="http://www.w3.org/1999/xlink"><defs><style type="text/css">@font-face { font-family: feedback-iconfont; src: url("//at.alicdn.com/t/font_1031158_u69w8yhxdu.woff2?t=1630033759944") format("woff2"), url("//at.alicdn.com/t/font_1031158_u69w8yhxdu.woff?t=1630033759944") format("woff"), url("//at.alicdn.com/t/font_1031158_u69w8yhxdu.ttf?t=1630033759944") format("truetype"); }
</style></defs><path d="M512 134.09228516C303.24232483 134.09228516 134.09228516 303.24232483 134.09228516 512s169.15003968 377.90771484 377.90771484 377.90771484 377.90771484-169.15003968 377.90771484-377.90771484S720.75767517 134.09228516 512 134.09228516z m0 724.38368225c-106.46823121 0-201.85359192-48.32858277-265.4438324-124.09181214 32.34017945-13.9898529 113.00894166-43.05967712 164.06282044-57.95796204 3.99710084-1.27180481 4.72384644-1.45349121 4.72384643-19.44044493 0-19.25875855-2.18023682-32.88523865-6.90408324-42.87799073-6.35902405-13.62648011-13.9898529-36.70065308-16.71514893-57.41290283-7.63082886-8.90263366-17.98695374-26.3445282-24.70935059-59.77482606-5.81396484-29.43319703-3.08866882-40.1526947 0.72674561-50.14544677 0.36337281-1.09011841 0.908432-2.18023682 1.0901184-3.27035522 1.45349121-6.72239685-0.54505921-42.69630432-5.63227844-70.49432373-3.45204163-19.07707214 0.908432-59.59313965 27.25296021-93.2051239 16.53346253-21.25730896 48.32858277-47.23846436 105.37811279-50.87219239h31.79512024c57.95796204 3.63372803 89.75308228 29.61488343 106.2865448 50.87219239 26.3445282 33.61198425 30.70500183 74.12805176 27.0712738 93.2051239-5.08721924 27.79801941-7.08576966 63.59024048-5.63227844 70.49432373 0.1816864 1.09011841 0.72674561 2.18023682 1.09011841 3.08866882 3.81541443 9.99275208 6.72239685 20.71224976 0.7267456 50.14544678-6.72239685 33.43029785-17.07852173 50.87219238-24.70935058 59.77482604-2.72529602 20.71224976-10.35612488 43.60473633-16.71514893 57.41290283-5.99565124 12.53636169-11.9913025 27.43464661-11.99130249 42.33293153 0 17.98695374 0.72674561 18.16864014 4.90553284 19.44044494 48.51026917 14.35322571 132.0860138 43.24136353 168.96835327 58.32133485-63.59024048 75.94491578-158.9756012 124.45518493-265.6255188 124.45518493z" p-id="2422" fill="#8a8a8a"></path></svg>